<svg width="28" height="29" viewBox="0 0 28 29" fill="none" xmlns="http://www.w3.org/2000/svg">
<path d="M24.749 23.93C26.1851 22.2021 27.184 20.1537 27.661 17.9582C28.1381 15.7626 28.0793 13.4845 27.4897 11.3164C26.9001 9.14837 25.7969 7.15423 24.2736 5.50268C22.7504 3.85112 20.8517 2.59075 18.7383 1.82818C16.6248 1.06561 14.3588 0.823278 12.132 1.12168C9.90507 1.42008 7.78281 2.25043 5.94471 3.5425C4.10661 4.83457 2.60674 6.55034 1.57199 8.54467C0.537232 10.539 -0.00196831 12.7532 -3.544e-07 15C0.000754819 18.2662 1.15174 21.4278 3.251 23.93L3.231 23.947C3.301 24.031 3.381 24.103 3.453 24.186C3.543 24.289 3.64 24.386 3.733 24.486C4.013 24.79 4.301 25.082 4.603 25.356C4.695 25.44 4.79 25.518 4.883 25.598C5.203 25.874 5.532 26.136 5.873 26.38C5.917 26.41 5.957 26.449 6.001 26.48V26.468C8.3431 28.1162 11.1371 29.0007 14.001 29.0007C16.8649 29.0007 19.6589 28.1162 22.001 26.468V26.48C22.045 26.449 22.084 26.41 22.129 26.38C22.469 26.135 22.799 25.874 23.119 25.598C23.212 25.518 23.307 25.439 23.399 25.356C23.701 25.081 23.989 24.79 24.269 24.486C24.362 24.386 24.458 24.289 24.549 24.186C24.62 24.103 24.701 24.031 24.771 23.946L24.749 23.93ZM14 7C14.89 7 15.76 7.26392 16.5001 7.75838C17.2401 8.25285 17.8169 8.95566 18.1575 9.77792C18.4981 10.6002 18.5872 11.505 18.4135 12.3779C18.2399 13.2508 17.8113 14.0526 17.182 14.682C16.5526 15.3113 15.7508 15.7399 14.8779 15.9135C14.005 16.0872 13.1002 15.998 12.2779 15.6575C11.4557 15.3169 10.7529 14.7401 10.2584 14.0001C9.76392 13.26 9.5 12.39 9.5 11.5C9.5 10.3065 9.97411 9.16193 10.818 8.31802C11.6619 7.4741 12.8065 7 14 7ZM6.007 23.93C6.02435 22.617 6.55795 21.3636 7.49236 20.4409C8.42677 19.5183 9.68685 19.0007 11 19H17C18.3131 19.0007 19.5732 19.5183 20.5076 20.4409C21.4421 21.3636 21.9757 22.617 21.993 23.93C19.7998 25.9063 16.9523 27.0001 14 27.0001C11.0477 27.0001 8.20016 25.9063 6.007 23.93Z" fill="black"/>
</svg>
