<svg width="18" height="14" viewBox="0 0 18 14" fill="none" xmlns="http://www.w3.org/2000/svg">
<path d="M17.4023 6.49609C15.5508 2.5957 12.7519 0.632812 8.99999 0.632812C5.24609 0.632812 2.44921 2.5957 0.597647 6.49805C0.52338 6.65531 0.484863 6.82706 0.484863 7.00098C0.484863 7.17489 0.52338 7.34665 0.597647 7.50391C2.44921 11.4043 5.24804 13.3672 8.99999 13.3672C12.7539 13.3672 15.5508 11.4043 17.4023 7.50195C17.5527 7.18555 17.5527 6.81836 17.4023 6.49609ZM8.99999 11.9609C5.8496 11.9609 3.54296 10.3633 1.91601 7C3.54296 3.63672 5.8496 2.03906 8.99999 2.03906C12.1504 2.03906 14.457 3.63672 16.084 7C14.459 10.3633 12.1523 11.9609 8.99999 11.9609ZM8.92187 3.5625C7.02343 3.5625 5.48437 5.10156 5.48437 7C5.48437 8.89844 7.02343 10.4375 8.92187 10.4375C10.8203 10.4375 12.3594 8.89844 12.3594 7C12.3594 5.10156 10.8203 3.5625 8.92187 3.5625ZM8.92187 9.1875C7.71288 9.1875 6.73437 8.20898 6.73437 7C6.73437 5.79102 7.71288 4.8125 8.92187 4.8125C10.1309 4.8125 11.1094 5.79102 11.1094 7C11.1094 8.20898 10.1309 9.1875 8.92187 9.1875Z" fill="black"/>
</svg>
